<mxfile host="app.diagrams.net" modified="2021-05-29T09:46:40.302Z" agent="5.0 (Windows NT 10.0; Win64; x64) AppleWebKit/537.36 (KHTML, like Gecko) Chrome/90.0.4430.72 YaBrowser/21.5.1.330 Yowser/2.5 Safari/537.36" etag="0wViE3LJemwpIiz90zMx" version="14.7.2" type="github">
  <diagram id="6HY_xIXsebkC-NFArRsS" name="Page-1">
    <mxGraphModel dx="1155" dy="673" grid="1" gridSize="10" guides="1" tooltips="1" connect="1" arrows="1" fold="1" page="1" pageScale="1" pageWidth="827" pageHeight="1169" math="0" shadow="0">
      <root>
        <mxCell id="0" />
        <mxCell id="1" parent="0" />
        <mxCell id="lZXu_XJgTbCIFLnKUyqm-1" value="MatchInfo" style="swimlane;fontStyle=2;align=center;verticalAlign=top;childLayout=stackLayout;horizontal=1;startSize=26;horizontalStack=0;resizeParent=1;resizeLast=0;collapsible=1;marginBottom=0;rounded=0;shadow=0;strokeWidth=1;" vertex="1" parent="1">
          <mxGeometry x="120" y="430" width="160" height="138" as="geometry">
            <mxRectangle x="230" y="140" width="160" height="26" as="alternateBounds" />
          </mxGeometry>
        </mxCell>
        <mxCell id="lZXu_XJgTbCIFLnKUyqm-2" value="+ Id: Guid" style="text;align=left;verticalAlign=top;spacingLeft=4;spacingRight=4;overflow=hidden;rotatable=0;points=[[0,0.5],[1,0.5]];portConstraint=eastwest;" vertex="1" parent="lZXu_XJgTbCIFLnKUyqm-1">
          <mxGeometry y="26" width="160" height="26" as="geometry" />
        </mxCell>
        <mxCell id="lZXu_XJgTbCIFLnKUyqm-4" value="Email Address" style="text;align=left;verticalAlign=top;spacingLeft=4;spacingRight=4;overflow=hidden;rotatable=0;points=[[0,0.5],[1,0.5]];portConstraint=eastwest;rounded=0;shadow=0;html=0;" vertex="1" parent="lZXu_XJgTbCIFLnKUyqm-1">
          <mxGeometry y="52" width="160" height="26" as="geometry" />
        </mxCell>
        <mxCell id="lZXu_XJgTbCIFLnKUyqm-5" value="" style="line;html=1;strokeWidth=1;align=left;verticalAlign=middle;spacingTop=-1;spacingLeft=3;spacingRight=3;rotatable=0;labelPosition=right;points=[];portConstraint=eastwest;" vertex="1" parent="lZXu_XJgTbCIFLnKUyqm-1">
          <mxGeometry y="78" width="160" height="8" as="geometry" />
        </mxCell>
        <mxCell id="lZXu_XJgTbCIFLnKUyqm-6" value="Purchase Parking Pass" style="text;align=left;verticalAlign=top;spacingLeft=4;spacingRight=4;overflow=hidden;rotatable=0;points=[[0,0.5],[1,0.5]];portConstraint=eastwest;" vertex="1" parent="lZXu_XJgTbCIFLnKUyqm-1">
          <mxGeometry y="86" width="160" height="26" as="geometry" />
        </mxCell>
        <mxCell id="lZXu_XJgTbCIFLnKUyqm-7" value="Student" style="swimlane;fontStyle=0;align=center;verticalAlign=top;childLayout=stackLayout;horizontal=1;startSize=26;horizontalStack=0;resizeParent=1;resizeLast=0;collapsible=1;marginBottom=0;rounded=0;shadow=0;strokeWidth=1;" vertex="1" parent="1">
          <mxGeometry x="20" y="670" width="160" height="138" as="geometry">
            <mxRectangle x="130" y="380" width="160" height="26" as="alternateBounds" />
          </mxGeometry>
        </mxCell>
        <mxCell id="lZXu_XJgTbCIFLnKUyqm-8" value="Student Number" style="text;align=left;verticalAlign=top;spacingLeft=4;spacingRight=4;overflow=hidden;rotatable=0;points=[[0,0.5],[1,0.5]];portConstraint=eastwest;" vertex="1" parent="lZXu_XJgTbCIFLnKUyqm-7">
          <mxGeometry y="26" width="160" height="26" as="geometry" />
        </mxCell>
        <mxCell id="lZXu_XJgTbCIFLnKUyqm-9" value="Average Mark" style="text;align=left;verticalAlign=top;spacingLeft=4;spacingRight=4;overflow=hidden;rotatable=0;points=[[0,0.5],[1,0.5]];portConstraint=eastwest;rounded=0;shadow=0;html=0;" vertex="1" parent="lZXu_XJgTbCIFLnKUyqm-7">
          <mxGeometry y="52" width="160" height="26" as="geometry" />
        </mxCell>
        <mxCell id="lZXu_XJgTbCIFLnKUyqm-10" value="" style="line;html=1;strokeWidth=1;align=left;verticalAlign=middle;spacingTop=-1;spacingLeft=3;spacingRight=3;rotatable=0;labelPosition=right;points=[];portConstraint=eastwest;" vertex="1" parent="lZXu_XJgTbCIFLnKUyqm-7">
          <mxGeometry y="78" width="160" height="8" as="geometry" />
        </mxCell>
        <mxCell id="lZXu_XJgTbCIFLnKUyqm-11" value="Is Eligible To Enroll" style="text;align=left;verticalAlign=top;spacingLeft=4;spacingRight=4;overflow=hidden;rotatable=0;points=[[0,0.5],[1,0.5]];portConstraint=eastwest;fontStyle=4" vertex="1" parent="lZXu_XJgTbCIFLnKUyqm-7">
          <mxGeometry y="86" width="160" height="26" as="geometry" />
        </mxCell>
        <mxCell id="lZXu_XJgTbCIFLnKUyqm-12" value="Get Seminars Taken" style="text;align=left;verticalAlign=top;spacingLeft=4;spacingRight=4;overflow=hidden;rotatable=0;points=[[0,0.5],[1,0.5]];portConstraint=eastwest;" vertex="1" parent="lZXu_XJgTbCIFLnKUyqm-7">
          <mxGeometry y="112" width="160" height="26" as="geometry" />
        </mxCell>
        <mxCell id="lZXu_XJgTbCIFLnKUyqm-13" value="" style="endArrow=block;endSize=10;endFill=0;shadow=0;strokeWidth=1;rounded=0;edgeStyle=elbowEdgeStyle;elbow=vertical;" edge="1" parent="1" source="lZXu_XJgTbCIFLnKUyqm-7" target="lZXu_XJgTbCIFLnKUyqm-1">
          <mxGeometry width="160" relative="1" as="geometry">
            <mxPoint x="100" y="513" as="sourcePoint" />
            <mxPoint x="100" y="513" as="targetPoint" />
          </mxGeometry>
        </mxCell>
        <mxCell id="lZXu_XJgTbCIFLnKUyqm-14" value="Professor" style="swimlane;fontStyle=0;align=center;verticalAlign=top;childLayout=stackLayout;horizontal=1;startSize=26;horizontalStack=0;resizeParent=1;resizeLast=0;collapsible=1;marginBottom=0;rounded=0;shadow=0;strokeWidth=1;" vertex="1" parent="1">
          <mxGeometry x="230" y="670" width="160" height="70" as="geometry">
            <mxRectangle x="340" y="380" width="170" height="26" as="alternateBounds" />
          </mxGeometry>
        </mxCell>
        <mxCell id="lZXu_XJgTbCIFLnKUyqm-15" value="Salary" style="text;align=left;verticalAlign=top;spacingLeft=4;spacingRight=4;overflow=hidden;rotatable=0;points=[[0,0.5],[1,0.5]];portConstraint=eastwest;" vertex="1" parent="lZXu_XJgTbCIFLnKUyqm-14">
          <mxGeometry y="26" width="160" height="26" as="geometry" />
        </mxCell>
        <mxCell id="lZXu_XJgTbCIFLnKUyqm-16" value="" style="line;html=1;strokeWidth=1;align=left;verticalAlign=middle;spacingTop=-1;spacingLeft=3;spacingRight=3;rotatable=0;labelPosition=right;points=[];portConstraint=eastwest;" vertex="1" parent="lZXu_XJgTbCIFLnKUyqm-14">
          <mxGeometry y="52" width="160" height="8" as="geometry" />
        </mxCell>
        <mxCell id="lZXu_XJgTbCIFLnKUyqm-17" value="" style="endArrow=block;endSize=10;endFill=0;shadow=0;strokeWidth=1;rounded=0;edgeStyle=elbowEdgeStyle;elbow=vertical;" edge="1" parent="1" source="lZXu_XJgTbCIFLnKUyqm-14" target="lZXu_XJgTbCIFLnKUyqm-1">
          <mxGeometry width="160" relative="1" as="geometry">
            <mxPoint x="110" y="683" as="sourcePoint" />
            <mxPoint x="210" y="581" as="targetPoint" />
          </mxGeometry>
        </mxCell>
        <mxCell id="lZXu_XJgTbCIFLnKUyqm-18" value="Address" style="swimlane;fontStyle=0;align=center;verticalAlign=top;childLayout=stackLayout;horizontal=1;startSize=26;horizontalStack=0;resizeParent=1;resizeLast=0;collapsible=1;marginBottom=0;rounded=0;shadow=0;strokeWidth=1;" vertex="1" parent="1">
          <mxGeometry x="408" y="430" width="160" height="216" as="geometry">
            <mxRectangle x="550" y="140" width="160" height="26" as="alternateBounds" />
          </mxGeometry>
        </mxCell>
        <mxCell id="lZXu_XJgTbCIFLnKUyqm-19" value="Street" style="text;align=left;verticalAlign=top;spacingLeft=4;spacingRight=4;overflow=hidden;rotatable=0;points=[[0,0.5],[1,0.5]];portConstraint=eastwest;" vertex="1" parent="lZXu_XJgTbCIFLnKUyqm-18">
          <mxGeometry y="26" width="160" height="26" as="geometry" />
        </mxCell>
        <mxCell id="lZXu_XJgTbCIFLnKUyqm-20" value="City" style="text;align=left;verticalAlign=top;spacingLeft=4;spacingRight=4;overflow=hidden;rotatable=0;points=[[0,0.5],[1,0.5]];portConstraint=eastwest;rounded=0;shadow=0;html=0;" vertex="1" parent="lZXu_XJgTbCIFLnKUyqm-18">
          <mxGeometry y="52" width="160" height="26" as="geometry" />
        </mxCell>
        <mxCell id="lZXu_XJgTbCIFLnKUyqm-21" value="State" style="text;align=left;verticalAlign=top;spacingLeft=4;spacingRight=4;overflow=hidden;rotatable=0;points=[[0,0.5],[1,0.5]];portConstraint=eastwest;rounded=0;shadow=0;html=0;" vertex="1" parent="lZXu_XJgTbCIFLnKUyqm-18">
          <mxGeometry y="78" width="160" height="26" as="geometry" />
        </mxCell>
        <mxCell id="lZXu_XJgTbCIFLnKUyqm-22" value="Postal Code" style="text;align=left;verticalAlign=top;spacingLeft=4;spacingRight=4;overflow=hidden;rotatable=0;points=[[0,0.5],[1,0.5]];portConstraint=eastwest;rounded=0;shadow=0;html=0;" vertex="1" parent="lZXu_XJgTbCIFLnKUyqm-18">
          <mxGeometry y="104" width="160" height="26" as="geometry" />
        </mxCell>
        <mxCell id="lZXu_XJgTbCIFLnKUyqm-23" value="Country" style="text;align=left;verticalAlign=top;spacingLeft=4;spacingRight=4;overflow=hidden;rotatable=0;points=[[0,0.5],[1,0.5]];portConstraint=eastwest;rounded=0;shadow=0;html=0;" vertex="1" parent="lZXu_XJgTbCIFLnKUyqm-18">
          <mxGeometry y="130" width="160" height="26" as="geometry" />
        </mxCell>
        <mxCell id="lZXu_XJgTbCIFLnKUyqm-24" value="" style="line;html=1;strokeWidth=1;align=left;verticalAlign=middle;spacingTop=-1;spacingLeft=3;spacingRight=3;rotatable=0;labelPosition=right;points=[];portConstraint=eastwest;" vertex="1" parent="lZXu_XJgTbCIFLnKUyqm-18">
          <mxGeometry y="156" width="160" height="8" as="geometry" />
        </mxCell>
        <mxCell id="lZXu_XJgTbCIFLnKUyqm-25" value="Validate" style="text;align=left;verticalAlign=top;spacingLeft=4;spacingRight=4;overflow=hidden;rotatable=0;points=[[0,0.5],[1,0.5]];portConstraint=eastwest;" vertex="1" parent="lZXu_XJgTbCIFLnKUyqm-18">
          <mxGeometry y="164" width="160" height="26" as="geometry" />
        </mxCell>
        <mxCell id="lZXu_XJgTbCIFLnKUyqm-26" value="Output As Label" style="text;align=left;verticalAlign=top;spacingLeft=4;spacingRight=4;overflow=hidden;rotatable=0;points=[[0,0.5],[1,0.5]];portConstraint=eastwest;" vertex="1" parent="lZXu_XJgTbCIFLnKUyqm-18">
          <mxGeometry y="190" width="160" height="26" as="geometry" />
        </mxCell>
        <mxCell id="lZXu_XJgTbCIFLnKUyqm-27" value="" style="endArrow=open;shadow=0;strokeWidth=1;rounded=0;endFill=1;edgeStyle=elbowEdgeStyle;elbow=vertical;" edge="1" parent="1" source="lZXu_XJgTbCIFLnKUyqm-1" target="lZXu_XJgTbCIFLnKUyqm-18">
          <mxGeometry x="0.5" y="41" relative="1" as="geometry">
            <mxPoint x="280" y="502" as="sourcePoint" />
            <mxPoint x="440" y="502" as="targetPoint" />
            <mxPoint x="-40" y="32" as="offset" />
          </mxGeometry>
        </mxCell>
        <mxCell id="lZXu_XJgTbCIFLnKUyqm-28" value="0..1" style="resizable=0;align=left;verticalAlign=bottom;labelBackgroundColor=none;fontSize=12;" connectable="0" vertex="1" parent="lZXu_XJgTbCIFLnKUyqm-27">
          <mxGeometry x="-1" relative="1" as="geometry">
            <mxPoint y="4" as="offset" />
          </mxGeometry>
        </mxCell>
        <mxCell id="lZXu_XJgTbCIFLnKUyqm-29" value="1" style="resizable=0;align=right;verticalAlign=bottom;labelBackgroundColor=none;fontSize=12;" connectable="0" vertex="1" parent="lZXu_XJgTbCIFLnKUyqm-27">
          <mxGeometry x="1" relative="1" as="geometry">
            <mxPoint x="-7" y="4" as="offset" />
          </mxGeometry>
        </mxCell>
        <mxCell id="lZXu_XJgTbCIFLnKUyqm-30" value="lives at" style="text;html=1;resizable=0;points=[];;align=center;verticalAlign=middle;labelBackgroundColor=none;rounded=0;shadow=0;strokeWidth=1;fontSize=12;" vertex="1" connectable="0" parent="lZXu_XJgTbCIFLnKUyqm-27">
          <mxGeometry x="0.5" y="49" relative="1" as="geometry">
            <mxPoint x="-38" y="40" as="offset" />
          </mxGeometry>
        </mxCell>
        <mxCell id="lZXu_XJgTbCIFLnKUyqm-31" value="MatchInfo" style="swimlane;fontStyle=1;align=center;verticalAlign=top;childLayout=stackLayout;horizontal=1;startSize=20;horizontalStack=0;resizeParent=1;resizeParentMax=0;resizeLast=0;collapsible=1;marginBottom=0;" vertex="1" parent="1">
          <mxGeometry x="390" y="910" width="220" height="164" as="geometry" />
        </mxCell>
        <mxCell id="lZXu_XJgTbCIFLnKUyqm-32" value="+ Id: Guid&#xa;+ MatchUrl: string&#xa;+ EventName: string&#xa;+ LogoUrl: string&#xa;+ StartTime: DateTime&#xa;+ TeamInfoes: ICollection&lt;TeamInfo&gt;&#xa;+ MatchFormat: string&#xa;+ Prediction: TeamsInfo&#xa;+ MatchResult: MatchResult" style="text;strokeColor=none;fillColor=none;align=left;verticalAlign=top;spacingLeft=4;spacingRight=4;overflow=hidden;rotatable=0;points=[[0,0.5],[1,0.5]];portConstraint=eastwest;" vertex="1" parent="lZXu_XJgTbCIFLnKUyqm-31">
          <mxGeometry y="20" width="220" height="140" as="geometry" />
        </mxCell>
        <mxCell id="lZXu_XJgTbCIFLnKUyqm-33" value="" style="line;strokeWidth=1;fillColor=none;align=left;verticalAlign=middle;spacingTop=-1;spacingLeft=3;spacingRight=3;rotatable=0;labelPosition=right;points=[];portConstraint=eastwest;" vertex="1" parent="lZXu_XJgTbCIFLnKUyqm-31">
          <mxGeometry y="160" width="220" height="4" as="geometry" />
        </mxCell>
        <mxCell id="lZXu_XJgTbCIFLnKUyqm-35" value="MatchResult" style="swimlane;fontStyle=1;align=center;verticalAlign=top;childLayout=stackLayout;horizontal=1;startSize=20;horizontalStack=0;resizeParent=1;resizeParentMax=0;resizeLast=0;collapsible=1;marginBottom=0;" vertex="1" parent="1">
          <mxGeometry x="730" y="940" width="220" height="104" as="geometry" />
        </mxCell>
        <mxCell id="lZXu_XJgTbCIFLnKUyqm-36" value="+ MatchInfoId: Guid&#xa;+ MatchInfo: MatchInfo&#xa;+ Winner: TeamInfo&#xa;+ Loser: TeamInfo&#xa;+ MapScore: string" style="text;strokeColor=none;fillColor=none;align=left;verticalAlign=top;spacingLeft=4;spacingRight=4;overflow=hidden;rotatable=0;points=[[0,0.5],[1,0.5]];portConstraint=eastwest;" vertex="1" parent="lZXu_XJgTbCIFLnKUyqm-35">
          <mxGeometry y="20" width="220" height="80" as="geometry" />
        </mxCell>
        <mxCell id="lZXu_XJgTbCIFLnKUyqm-37" value="" style="line;strokeWidth=1;fillColor=none;align=left;verticalAlign=middle;spacingTop=-1;spacingLeft=3;spacingRight=3;rotatable=0;labelPosition=right;points=[];portConstraint=eastwest;" vertex="1" parent="lZXu_XJgTbCIFLnKUyqm-35">
          <mxGeometry y="100" width="220" height="4" as="geometry" />
        </mxCell>
        <mxCell id="lZXu_XJgTbCIFLnKUyqm-38" value="TeamInfo" style="swimlane;fontStyle=1;align=center;verticalAlign=top;childLayout=stackLayout;horizontal=1;startSize=20;horizontalStack=0;resizeParent=1;resizeParentMax=0;resizeLast=0;collapsible=1;marginBottom=0;" vertex="1" parent="1">
          <mxGeometry x="390" y="1150" width="220" height="104" as="geometry" />
        </mxCell>
        <mxCell id="lZXu_XJgTbCIFLnKUyqm-39" value="+ Id: string&#xa;+ Name: string&#xa;+ LogoUrl: string&#xa;+ MatchInfo: ICollection&lt;MatchInfo&gt;&#xa;+ Stats: ICollection&lt;TeamMapStats&gt;" style="text;strokeColor=none;fillColor=none;align=left;verticalAlign=top;spacingLeft=4;spacingRight=4;overflow=hidden;rotatable=0;points=[[0,0.5],[1,0.5]];portConstraint=eastwest;" vertex="1" parent="lZXu_XJgTbCIFLnKUyqm-38">
          <mxGeometry y="20" width="220" height="80" as="geometry" />
        </mxCell>
        <mxCell id="lZXu_XJgTbCIFLnKUyqm-40" value="" style="line;strokeWidth=1;fillColor=none;align=left;verticalAlign=middle;spacingTop=-1;spacingLeft=3;spacingRight=3;rotatable=0;labelPosition=right;points=[];portConstraint=eastwest;" vertex="1" parent="lZXu_XJgTbCIFLnKUyqm-38">
          <mxGeometry y="100" width="220" height="4" as="geometry" />
        </mxCell>
        <mxCell id="lZXu_XJgTbCIFLnKUyqm-41" value="TeamMapStats" style="swimlane;fontStyle=1;align=center;verticalAlign=top;childLayout=stackLayout;horizontal=1;startSize=20;horizontalStack=0;resizeParent=1;resizeParentMax=0;resizeLast=0;collapsible=1;marginBottom=0;" vertex="1" parent="1">
          <mxGeometry x="80" y="1250" width="220" height="104" as="geometry" />
        </mxCell>
        <mxCell id="lZXu_XJgTbCIFLnKUyqm-42" value="+ Id: int&#xa;+ MapName: string&#xa;+ TeamInfo: TeamInfo&#xa;+ MapPlayed: int&#xa;+ WinPercentage: int" style="text;strokeColor=none;fillColor=none;align=left;verticalAlign=top;spacingLeft=4;spacingRight=4;overflow=hidden;rotatable=0;points=[[0,0.5],[1,0.5]];portConstraint=eastwest;" vertex="1" parent="lZXu_XJgTbCIFLnKUyqm-41">
          <mxGeometry y="20" width="220" height="80" as="geometry" />
        </mxCell>
        <mxCell id="lZXu_XJgTbCIFLnKUyqm-43" value="" style="line;strokeWidth=1;fillColor=none;align=left;verticalAlign=middle;spacingTop=-1;spacingLeft=3;spacingRight=3;rotatable=0;labelPosition=right;points=[];portConstraint=eastwest;" vertex="1" parent="lZXu_XJgTbCIFLnKUyqm-41">
          <mxGeometry y="100" width="220" height="4" as="geometry" />
        </mxCell>
        <mxCell id="lZXu_XJgTbCIFLnKUyqm-44" value="AlghorithmStatsViewModel" style="swimlane;fontStyle=1;align=center;verticalAlign=top;childLayout=stackLayout;horizontal=1;startSize=20;horizontalStack=0;resizeParent=1;resizeParentMax=0;resizeLast=0;collapsible=1;marginBottom=0;" vertex="1" parent="1">
          <mxGeometry x="80" y="934" width="220" height="104" as="geometry" />
        </mxCell>
        <mxCell id="lZXu_XJgTbCIFLnKUyqm-45" value="+ MatchInfoes: List&lt;MatchInfo&gt;&#xa;+ WinRate: double&#xa;+ LostCount: int&#xa;+ WinCount: int" style="text;strokeColor=none;fillColor=none;align=left;verticalAlign=top;spacingLeft=4;spacingRight=4;overflow=hidden;rotatable=0;points=[[0,0.5],[1,0.5]];portConstraint=eastwest;" vertex="1" parent="lZXu_XJgTbCIFLnKUyqm-44">
          <mxGeometry y="20" width="220" height="80" as="geometry" />
        </mxCell>
        <mxCell id="lZXu_XJgTbCIFLnKUyqm-46" value="" style="line;strokeWidth=1;fillColor=none;align=left;verticalAlign=middle;spacingTop=-1;spacingLeft=3;spacingRight=3;rotatable=0;labelPosition=right;points=[];portConstraint=eastwest;" vertex="1" parent="lZXu_XJgTbCIFLnKUyqm-44">
          <mxGeometry y="100" width="220" height="4" as="geometry" />
        </mxCell>
        <mxCell id="lZXu_XJgTbCIFLnKUyqm-50" value="" style="endArrow=none;html=1;rounded=0;exitX=0.5;exitY=1;exitDx=0;exitDy=0;entryX=0.5;entryY=0;entryDx=0;entryDy=0;" edge="1" parent="1" source="lZXu_XJgTbCIFLnKUyqm-31" target="lZXu_XJgTbCIFLnKUyqm-38">
          <mxGeometry relative="1" as="geometry">
            <mxPoint x="200" y="1110" as="sourcePoint" />
            <mxPoint x="360" y="1110" as="targetPoint" />
          </mxGeometry>
        </mxCell>
        <mxCell id="lZXu_XJgTbCIFLnKUyqm-52" value="" style="endArrow=diamondThin;endFill=1;endSize=24;html=1;strokeColor=#000000;fontColor=none;exitX=1;exitY=0.5;exitDx=0;exitDy=0;entryX=0;entryY=0.5;entryDx=0;entryDy=0;" edge="1" parent="1" source="lZXu_XJgTbCIFLnKUyqm-45" target="lZXu_XJgTbCIFLnKUyqm-32">
          <mxGeometry width="160" relative="1" as="geometry">
            <mxPoint x="280" y="1020" as="sourcePoint" />
            <mxPoint x="420" y="1000" as="targetPoint" />
          </mxGeometry>
        </mxCell>
        <mxCell id="lZXu_XJgTbCIFLnKUyqm-53" value="" style="endArrow=none;html=1;rounded=0;exitX=0;exitY=0.5;exitDx=0;exitDy=0;entryX=1;entryY=0.5;entryDx=0;entryDy=0;" edge="1" parent="1" source="lZXu_XJgTbCIFLnKUyqm-36" target="lZXu_XJgTbCIFLnKUyqm-32">
          <mxGeometry relative="1" as="geometry">
            <mxPoint x="770" y="1037" as="sourcePoint" />
            <mxPoint x="650" y="1037" as="targetPoint" />
          </mxGeometry>
        </mxCell>
        <mxCell id="lZXu_XJgTbCIFLnKUyqm-54" value="ApplicationDbContext" style="swimlane;fontStyle=1;align=center;verticalAlign=top;childLayout=stackLayout;horizontal=1;startSize=20;horizontalStack=0;resizeParent=1;resizeParentMax=0;resizeLast=0;collapsible=1;marginBottom=0;" vertex="1" parent="1">
          <mxGeometry x="650" y="1254" width="250" height="160" as="geometry" />
        </mxCell>
        <mxCell id="lZXu_XJgTbCIFLnKUyqm-55" value="+ MatchesInfo: DbSet&lt;MatchInfo&gt;&#xa;+ TeamsInfo: DbSet&lt;TeamInfo&gt;&#xa;+ TeamMapStats: DbSet&lt;TeamMapStats&gt;&#xa;+ MatchResult: DbSet&lt;MatchResult&gt;" style="text;strokeColor=none;fillColor=none;align=left;verticalAlign=top;spacingLeft=4;spacingRight=4;overflow=hidden;rotatable=0;points=[[0,0.5],[1,0.5]];portConstraint=eastwest;" vertex="1" parent="lZXu_XJgTbCIFLnKUyqm-54">
          <mxGeometry y="20" width="250" height="90" as="geometry" />
        </mxCell>
        <mxCell id="lZXu_XJgTbCIFLnKUyqm-56" value="" style="line;strokeWidth=1;fillColor=none;align=left;verticalAlign=middle;spacingTop=-1;spacingLeft=3;spacingRight=3;rotatable=0;labelPosition=right;points=[];portConstraint=eastwest;" vertex="1" parent="lZXu_XJgTbCIFLnKUyqm-54">
          <mxGeometry y="110" width="250" height="30" as="geometry" />
        </mxCell>
        <mxCell id="lZXu_XJgTbCIFLnKUyqm-57" value="+ Create(): ApplicationDbContext" style="text;html=1;align=left;verticalAlign=middle;resizable=0;points=[];autosize=1;strokeColor=none;" vertex="1" parent="lZXu_XJgTbCIFLnKUyqm-54">
          <mxGeometry y="140" width="250" height="20" as="geometry" />
        </mxCell>
        <mxCell id="lZXu_XJgTbCIFLnKUyqm-59" value="" style="endArrow=diamondThin;endFill=1;endSize=24;html=1;strokeColor=#000000;fontColor=none;exitX=1;exitY=1;exitDx=0;exitDy=0;entryX=0.25;entryY=0;entryDx=0;entryDy=0;" edge="1" parent="1" source="lZXu_XJgTbCIFLnKUyqm-31" target="lZXu_XJgTbCIFLnKUyqm-54">
          <mxGeometry width="160" relative="1" as="geometry">
            <mxPoint x="760" y="1150" as="sourcePoint" />
            <mxPoint x="850" y="1156" as="targetPoint" />
          </mxGeometry>
        </mxCell>
        <mxCell id="lZXu_XJgTbCIFLnKUyqm-60" value="" style="endArrow=diamondThin;endFill=1;endSize=24;html=1;strokeColor=#000000;fontColor=none;exitX=0.517;exitY=0.56;exitDx=0;exitDy=0;entryX=0.5;entryY=0;entryDx=0;entryDy=0;exitPerimeter=0;" edge="1" parent="1" source="lZXu_XJgTbCIFLnKUyqm-37" target="lZXu_XJgTbCIFLnKUyqm-54">
          <mxGeometry width="160" relative="1" as="geometry">
            <mxPoint x="620" y="1084" as="sourcePoint" />
            <mxPoint x="722.5" y="1264" as="targetPoint" />
          </mxGeometry>
        </mxCell>
        <mxCell id="lZXu_XJgTbCIFLnKUyqm-61" value="" style="endArrow=diamondThin;endFill=1;endSize=24;html=1;strokeColor=#000000;fontColor=none;exitX=1;exitY=0.5;exitDx=0;exitDy=0;entryX=-0.005;entryY=0.338;entryDx=0;entryDy=0;entryPerimeter=0;" edge="1" parent="1" source="lZXu_XJgTbCIFLnKUyqm-39" target="lZXu_XJgTbCIFLnKUyqm-55">
          <mxGeometry width="160" relative="1" as="geometry">
            <mxPoint x="853.7399999999998" y="1052.24" as="sourcePoint" />
            <mxPoint x="785" y="1264" as="targetPoint" />
          </mxGeometry>
        </mxCell>
        <mxCell id="lZXu_XJgTbCIFLnKUyqm-62" value="MatchController" style="swimlane;fontStyle=1;align=center;verticalAlign=top;childLayout=stackLayout;horizontal=1;startSize=26;horizontalStack=0;resizeParent=1;resizeParentMax=0;resizeLast=0;collapsible=1;marginBottom=0;" vertex="1" parent="1">
          <mxGeometry x="1010" y="1250" width="560" height="160" as="geometry" />
        </mxCell>
        <mxCell id="lZXu_XJgTbCIFLnKUyqm-63" value="- db: ApplicationDbContext" style="text;strokeColor=none;fillColor=none;align=left;verticalAlign=top;spacingLeft=4;spacingRight=4;overflow=hidden;rotatable=0;points=[[0,0.5],[1,0.5]];portConstraint=eastwest;" vertex="1" parent="lZXu_XJgTbCIFLnKUyqm-62">
          <mxGeometry y="26" width="560" height="44" as="geometry" />
        </mxCell>
        <mxCell id="lZXu_XJgTbCIFLnKUyqm-64" value="" style="line;strokeWidth=1;fillColor=none;align=left;verticalAlign=middle;spacingTop=-1;spacingLeft=3;spacingRight=3;rotatable=0;labelPosition=right;points=[];portConstraint=eastwest;" vertex="1" parent="lZXu_XJgTbCIFLnKUyqm-62">
          <mxGeometry y="70" width="560" height="8" as="geometry" />
        </mxCell>
        <mxCell id="lZXu_XJgTbCIFLnKUyqm-65" value="+ Index() : Task&lt;ActionResult&gt;&#xa;+ AlghorithmStatsCSGO() : Task&lt;ActionResult&gt;&#xa;+ TeamDetails(string) : Task&lt;ActionResult&gt;&#xa;+ _LiveMatchList() : Task&lt;ActionResult&gt;&#xa;" style="text;strokeColor=none;fillColor=none;align=left;verticalAlign=top;spacingLeft=4;spacingRight=4;overflow=hidden;rotatable=0;points=[[0,0.5],[1,0.5]];portConstraint=eastwest;" vertex="1" parent="lZXu_XJgTbCIFLnKUyqm-62">
          <mxGeometry y="78" width="560" height="82" as="geometry" />
        </mxCell>
        <mxCell id="lZXu_XJgTbCIFLnKUyqm-66" value="" style="endArrow=diamondThin;endFill=1;endSize=24;html=1;strokeColor=#000000;fontColor=none;exitX=1;exitY=0.5;exitDx=0;exitDy=0;entryX=0;entryY=0.5;entryDx=0;entryDy=0;" edge="1" parent="1" source="lZXu_XJgTbCIFLnKUyqm-55" target="lZXu_XJgTbCIFLnKUyqm-63">
          <mxGeometry width="160" relative="1" as="geometry">
            <mxPoint x="853.74" y="1052.24" as="sourcePoint" />
            <mxPoint x="785" y="1264" as="targetPoint" />
          </mxGeometry>
        </mxCell>
        <mxCell id="lZXu_XJgTbCIFLnKUyqm-67" value="" style="endArrow=open;shadow=0;strokeWidth=1;rounded=0;endFill=1;edgeStyle=elbowEdgeStyle;elbow=vertical;exitX=0.5;exitY=0;exitDx=0;exitDy=0;entryX=0.5;entryY=1;entryDx=0;entryDy=0;" edge="1" parent="1" source="lZXu_XJgTbCIFLnKUyqm-38" target="lZXu_XJgTbCIFLnKUyqm-31">
          <mxGeometry x="0.5" y="41" relative="1" as="geometry">
            <mxPoint x="400.0000000000002" y="880" as="sourcePoint" />
            <mxPoint x="528" y="880" as="targetPoint" />
            <mxPoint x="-40" y="32" as="offset" />
          </mxGeometry>
        </mxCell>
        <mxCell id="lZXu_XJgTbCIFLnKUyqm-68" value="0..1" style="resizable=0;align=left;verticalAlign=bottom;labelBackgroundColor=none;fontSize=12;" connectable="0" vertex="1" parent="lZXu_XJgTbCIFLnKUyqm-67">
          <mxGeometry x="-1" relative="1" as="geometry">
            <mxPoint y="4" as="offset" />
          </mxGeometry>
        </mxCell>
        <mxCell id="lZXu_XJgTbCIFLnKUyqm-69" value="0..1" style="resizable=0;align=right;verticalAlign=bottom;labelBackgroundColor=none;fontSize=12;" connectable="0" vertex="1" parent="lZXu_XJgTbCIFLnKUyqm-67">
          <mxGeometry x="1" relative="1" as="geometry">
            <mxPoint x="30" y="16" as="offset" />
          </mxGeometry>
        </mxCell>
        <mxCell id="lZXu_XJgTbCIFLnKUyqm-71" value="Play in" style="edgeLabel;html=1;align=center;verticalAlign=middle;resizable=0;points=[];" vertex="1" connectable="0" parent="lZXu_XJgTbCIFLnKUyqm-67">
          <mxGeometry x="0.2861" relative="1" as="geometry">
            <mxPoint x="10" as="offset" />
          </mxGeometry>
        </mxCell>
        <mxCell id="lZXu_XJgTbCIFLnKUyqm-72" value="" style="endArrow=open;shadow=0;strokeWidth=1;rounded=0;endFill=1;edgeStyle=elbowEdgeStyle;elbow=vertical;exitX=1;exitY=0.5;exitDx=0;exitDy=0;entryX=0.234;entryY=1.023;entryDx=0;entryDy=0;entryPerimeter=0;" edge="1" parent="1" source="lZXu_XJgTbCIFLnKUyqm-42" target="lZXu_XJgTbCIFLnKUyqm-40">
          <mxGeometry x="0.5" y="41" relative="1" as="geometry">
            <mxPoint x="330" y="1276" as="sourcePoint" />
            <mxPoint x="330" y="1200" as="targetPoint" />
            <mxPoint x="-40" y="32" as="offset" />
            <Array as="points">
              <mxPoint x="340" y="1310" />
            </Array>
          </mxGeometry>
        </mxCell>
        <mxCell id="lZXu_XJgTbCIFLnKUyqm-73" value="1" style="resizable=0;align=left;verticalAlign=bottom;labelBackgroundColor=none;fontSize=12;" connectable="0" vertex="1" parent="lZXu_XJgTbCIFLnKUyqm-72">
          <mxGeometry x="-1" relative="1" as="geometry">
            <mxPoint y="4" as="offset" />
          </mxGeometry>
        </mxCell>
        <mxCell id="lZXu_XJgTbCIFLnKUyqm-74" value="0..1" style="resizable=0;align=right;verticalAlign=bottom;labelBackgroundColor=none;fontSize=12;" connectable="0" vertex="1" parent="lZXu_XJgTbCIFLnKUyqm-72">
          <mxGeometry x="1" relative="1" as="geometry">
            <mxPoint x="30" y="16" as="offset" />
          </mxGeometry>
        </mxCell>
        <mxCell id="lZXu_XJgTbCIFLnKUyqm-78" value="StatsOf" style="edgeLabel;html=1;align=center;verticalAlign=middle;resizable=0;points=[];" vertex="1" connectable="0" parent="lZXu_XJgTbCIFLnKUyqm-72">
          <mxGeometry x="0.1389" y="1" relative="1" as="geometry">
            <mxPoint as="offset" />
          </mxGeometry>
        </mxCell>
        <mxCell id="lZXu_XJgTbCIFLnKUyqm-79" value="" style="endArrow=open;shadow=0;strokeWidth=1;rounded=0;endFill=1;edgeStyle=elbowEdgeStyle;elbow=vertical;exitX=1;exitY=0.5;exitDx=0;exitDy=0;" edge="1" parent="1" source="lZXu_XJgTbCIFLnKUyqm-32">
          <mxGeometry x="0.5" y="41" relative="1" as="geometry">
            <mxPoint x="290" y="1115.9099999999999" as="sourcePoint" />
            <mxPoint x="730" y="1000" as="targetPoint" />
            <mxPoint x="-40" y="32" as="offset" />
            <Array as="points" />
          </mxGeometry>
        </mxCell>
        <mxCell id="lZXu_XJgTbCIFLnKUyqm-80" value="1" style="resizable=0;align=left;verticalAlign=bottom;labelBackgroundColor=none;fontSize=12;" connectable="0" vertex="1" parent="lZXu_XJgTbCIFLnKUyqm-79">
          <mxGeometry x="-1" relative="1" as="geometry">
            <mxPoint y="4" as="offset" />
          </mxGeometry>
        </mxCell>
        <mxCell id="lZXu_XJgTbCIFLnKUyqm-81" value="1" style="resizable=0;align=right;verticalAlign=bottom;labelBackgroundColor=none;fontSize=12;" connectable="0" vertex="1" parent="lZXu_XJgTbCIFLnKUyqm-79">
          <mxGeometry x="1" relative="1" as="geometry">
            <mxPoint y="20" as="offset" />
          </mxGeometry>
        </mxCell>
        <mxCell id="lZXu_XJgTbCIFLnKUyqm-82" value="ResultedMatch" style="edgeLabel;html=1;align=center;verticalAlign=middle;resizable=0;points=[];" vertex="1" connectable="0" parent="lZXu_XJgTbCIFLnKUyqm-79">
          <mxGeometry x="0.1389" y="1" relative="1" as="geometry">
            <mxPoint as="offset" />
          </mxGeometry>
        </mxCell>
        <mxCell id="lZXu_XJgTbCIFLnKUyqm-85" value="ParserSheduler" style="swimlane;fontStyle=1;align=center;verticalAlign=top;childLayout=stackLayout;horizontal=1;startSize=20;horizontalStack=0;resizeParent=1;resizeParentMax=0;resizeLast=0;collapsible=1;marginBottom=0;" vertex="1" parent="1">
          <mxGeometry x="340" y="1520" width="220" height="70" as="geometry" />
        </mxCell>
        <mxCell id="lZXu_XJgTbCIFLnKUyqm-87" value="" style="line;strokeWidth=1;fillColor=none;align=left;verticalAlign=middle;spacingTop=-1;spacingLeft=3;spacingRight=3;rotatable=0;labelPosition=right;points=[];portConstraint=eastwest;" vertex="1" parent="lZXu_XJgTbCIFLnKUyqm-85">
          <mxGeometry y="20" width="220" height="30" as="geometry" />
        </mxCell>
        <mxCell id="lZXu_XJgTbCIFLnKUyqm-88" value="+ Start() : void" style="text;html=1;align=left;verticalAlign=middle;resizable=0;points=[];autosize=1;strokeColor=none;" vertex="1" parent="lZXu_XJgTbCIFLnKUyqm-85">
          <mxGeometry y="50" width="220" height="20" as="geometry" />
        </mxCell>
        <mxCell id="lZXu_XJgTbCIFLnKUyqm-89" value="Parser" style="swimlane;fontStyle=1;align=center;verticalAlign=top;childLayout=stackLayout;horizontal=1;startSize=20;horizontalStack=0;resizeParent=1;resizeParentMax=0;resizeLast=0;collapsible=1;marginBottom=0;" vertex="1" parent="1">
          <mxGeometry x="640" y="1520" width="320" height="210" as="geometry" />
        </mxCell>
        <mxCell id="lZXu_XJgTbCIFLnKUyqm-92" value="+ config: IConfiguration&lt;br&gt;+ adress: string&lt;br&gt;+ context: IBrowsingContext&lt;br&gt;+ document: IDocument&lt;br&gt;- db: ApplicationDbContext" style="text;html=1;align=left;verticalAlign=middle;resizable=0;points=[];autosize=1;strokeColor=none;" vertex="1" parent="lZXu_XJgTbCIFLnKUyqm-89">
          <mxGeometry y="20" width="320" height="70" as="geometry" />
        </mxCell>
        <mxCell id="lZXu_XJgTbCIFLnKUyqm-90" value="" style="line;strokeWidth=1;fillColor=none;align=left;verticalAlign=middle;spacingTop=-1;spacingLeft=3;spacingRight=3;rotatable=0;labelPosition=right;points=[];portConstraint=eastwest;" vertex="1" parent="lZXu_XJgTbCIFLnKUyqm-89">
          <mxGeometry y="90" width="320" height="30" as="geometry" />
        </mxCell>
        <mxCell id="lZXu_XJgTbCIFLnKUyqm-91" value="+ Execute() : Task&lt;br&gt;+ ParseMatchesToday() : Task&amp;lt;List&amp;lt;MatchInfo&amp;gt;&amp;gt;&lt;br&gt;+ParseMatchStats(string) : Task&amp;lt;List&amp;lt;List&amp;lt;MatchStats&amp;gt;&amp;gt;&amp;gt;&lt;br&gt;+ GetMatchesResultToDb() : Task&lt;br&gt;+ PredictMatch(MatchInfo) : Task&amp;lt;TeamInfo&amp;gt;&lt;br&gt;+ UnixTimeStampToDateTime(double) : DateTime" style="text;html=1;align=left;verticalAlign=middle;resizable=0;points=[];autosize=1;strokeColor=none;" vertex="1" parent="lZXu_XJgTbCIFLnKUyqm-89">
          <mxGeometry y="120" width="320" height="90" as="geometry" />
        </mxCell>
        <mxCell id="lZXu_XJgTbCIFLnKUyqm-93" value="" style="endArrow=diamondThin;endFill=0;endSize=24;html=1;entryX=1.007;entryY=-0.049;entryDx=0;entryDy=0;entryPerimeter=0;exitX=-0.004;exitY=0.537;exitDx=0;exitDy=0;exitPerimeter=0;" edge="1" parent="1" source="lZXu_XJgTbCIFLnKUyqm-92" target="lZXu_XJgTbCIFLnKUyqm-88">
          <mxGeometry width="160" relative="1" as="geometry">
            <mxPoint x="567.9999999999995" y="1459.9979999999996" as="sourcePoint" />
            <mxPoint x="584.5899999999997" y="1598.2299999999996" as="targetPoint" />
          </mxGeometry>
        </mxCell>
      </root>
    </mxGraphModel>
  </diagram>
</mxfile>
